HIERARCHY
ROOT pelvis
{
    OFFSET 0.0 91.00648498535156 0.0
    CHANNELS 6 Xposition Yposition Zposition Zrotation Yrotation Xrotation

    JOINT left_hip
    {
        OFFSET -6.184089660644531 -4.6950531005859375 -1.9466856718063354
        CHANNELS 3 Zrotation Yrotation Xrotation

        JOINT left_knee
        {
            OFFSET -4.348874092102051 -41.048187255859375 -4.477793216705322
            CHANNELS 3 Zrotation Yrotation Xrotation

            JOINT left_ankle
            {
                OFFSET 0.8000860214233398 -42.05607604980469 -2.1952080726623535
                CHANNELS 3 Zrotation Yrotation Xrotation

                JOINT left_foot
                {
                    OFFSET -6.1337995529174805 -2.7985777854919434 12.216135025024414
                    CHANNELS 3 Zrotation Yrotation Xrotation

                    End Site
                    {
                        OFFSET 0 0 0
                    }
                }
            }
        }
    }

    JOINT right_hip
    {
        OFFSET 7.3762102127075195 -4.652305603027344 -1.095921277999878
        CHANNELS 3 Zrotation Yrotation Xrotation

        JOINT right_knee
        {
            OFFSET 9.077946662902832 -41.12553787231445 -5.195260047912598
            CHANNELS 3 Zrotation Yrotation Xrotation

            JOINT right_ankle
            {
                OFFSET 2.5560970306396484 -40.36468505859375 0.3395204544067383
                CHANNELS 3 Zrotation Yrotation Xrotation

                JOINT right_foot
                {
                    OFFSET 2.343048095703125 -3.387235164642334 14.70488452911377
                    CHANNELS 3 Zrotation Yrotation Xrotation

                    End Site
                    {
                        OFFSET 0 0 0
                    }
                }
            }
        }
    }

    JOINT spine1
    {
        OFFSET 0.02552017942070961 17.621856689453125 -1.0625170469284058
        CHANNELS 3 Zrotation Yrotation Xrotation

        JOINT spine2
        {
            OFFSET 0.21316708624362946 12.010650634765625 3.084238052368164
            CHANNELS 3 Zrotation Yrotation Xrotation

            JOINT spine3
            {
                OFFSET -0.07614581286907196 3.0033340454101562 3.9873390197753906
                CHANNELS 3 Zrotation Yrotation Xrotation

                JOINT left_collar
                {
                    OFFSET -6.876729488372803 10.003364562988281 -3.3675177097320557
                    CHANNELS 3 Zrotation Yrotation Xrotation

                    JOINT left_shoulder
                    {
                        OFFSET -12.84560775756836 0.03887939453125 -2.180781602859497
                        CHANNELS 3 Zrotation Yrotation Xrotation

                        JOINT left_elbow
                        {
                            OFFSET -10.683326721191406 -18.971221923828125 -9.113794326782227
                            CHANNELS 3 Zrotation Yrotation Xrotation

                            JOINT left_wrist
                            {
                                OFFSET -28.408432006835938 -1.7157440185546875 0.7068133354187012
                                CHANNELS 3 Zrotation Yrotation Xrotation

                                End Site
                                {
                                    OFFSET 0 0 0
                                }
                            }
                        }
                    }
                }

                JOINT right_collar
                {
                    OFFSET 7.04063606262207 10.003852844238281 -1.3289637565612793
                    CHANNELS 3 Zrotation Yrotation Xrotation

                    JOINT right_shoulder
                    {
                        OFFSET 12.298832893371582 1.0088958740234375 2.050689697265625
                        CHANNELS 3 Zrotation Yrotation Xrotation

                        JOINT right_elbow
                        {
                            OFFSET 19.75140380859375 -14.405769348144531 -5.595602035522461
                            CHANNELS 3 Zrotation Yrotation Xrotation

                            JOINT right_wrist
                            {
                                OFFSET 23.810379028320312 -16.782806396484375 8.137945175170898
                                CHANNELS 3 Zrotation Yrotation Xrotation

                                End Site
                                {
                                    OFFSET 0 0 0
                                }
                            }
                        }
                    }
                }

                JOINT neck
                {
                    OFFSET -0.1834198385477066 21.27173614501953 -1.9469947814941406
                    CHANNELS 3 Zrotation Yrotation Xrotation

                    JOINT head
                    {
                        OFFSET -0.9166092872619629 13.209671020507812 4.862464904785156
                        CHANNELS 3 Zrotation Yrotation Xrotation

                        End Site
                        {
                            OFFSET 0 0 0
                        }
                    }
                }
            }
        }
    }

}

MOTION
Frames: 10
Frame Time: 0.050000
0.000000 91.006485 0.000000 0.000000 0.000000 0.000000 0.000000 0.000000 0.000000 0.000000 0.000000 0.000000 0.000000 0.000000 0.000000 0.000000 0.000000 0.000000 0.000000 0.000000 0.000000 0.000000 0.000000 0.000000 0.000000 0.000000 0.000000 0.000000 0.000000 0.000000 0.000000 0.000000 0.000000 0.000000 0.000000 0.000000 0.000000 0.000000 0.000000 0.000000 0.000000 0.000000 0.000000 0.000000 0.000000 0.000000 0.000000 0.000000 0.000000 0.000000 0.000000 0.000000 0.000000 0.000000 0.000000 0.000000 0.000000 0.000000 0.000000 0.000000 0.000000 0.000000 0.000000 0.000000 0.000000 0.000000 0.000000 0.000000 0.000000
0.266392 91.591743 -0.258478 0.000000 0.000000 -0.000000 -3.681369 -4.196500 -2.624498 3.787971 3.835838 4.647540 39.873264 -8.109174 -9.131896 0.000000 0.000000 -0.000000 -3.463315 -4.701892 2.213448 3.182171 2.327364 0.066816 48.483900 6.541297 10.060051 0.000000 0.000000 -0.000000 -3.626316 2.971805 -4.695480 -37.565495 16.359732 -0.530208 0.000000 0.000000 -0.000000 -4.400355 -10.269481 5.421051 2.189024 -7.136732 -7.618339 4.098709 -8.653558 -12.520478 0.000000 0.000000 -0.000000 -2.793491 -14.716426 -3.565063 4.577816 -5.028086 1.607671 2.227403 -0.961998 -0.248323 0.000000 0.000000 -0.000000 -2.705039 1.474016 4.130841 0.000000 0.000000 -0.000000
0.533090 91.645706 -0.543174 0.000000 0.000000 -0.000000 -3.700661 -4.254727 -3.837951 3.879132 3.931679 6.496735 45.186776 -9.613245 -9.743477 0.000000 0.000000 -0.000000 -3.672359 -4.885358 1.982208 3.905357 3.075785 0.200273 52.010191 7.218154 11.777244 0.000000 0.000000 -0.000000 -4.957707 3.933954 -1.722662 -43.331461 18.457985 -1.418118 0.000000 0.000000 -0.000000 -5.566643 -6.952661 6.756944 0.355336 -3.680985 -5.255821 4.896968 -19.941867 -7.791801 0.000000 0.000000 -0.000000 -3.917758 -16.793972 -4.717119 2.300212 -12.452099 2.868402 0.282442 2.367650 -10.463334 0.000000 0.000000 -0.000000 -3.857919 2.069220 5.492569 0.000000 0.000000 -0.000000
0.803050 91.778343 -0.986621 0.000000 0.000000 -0.000000 -3.372378 -3.950000 -4.850375 3.664977 3.668627 8.151593 50.325727 -11.076903 -10.275996 0.000000 0.000000 -0.000000 -3.890466 -4.988949 1.465257 4.726579 3.946791 0.306069 55.281490 7.651939 13.475393 0.000000 0.000000 -0.000000 -6.475534 4.851641 2.366758 -48.957307 19.972511 -2.717550 0.000000 0.000000 -0.000000 -7.182456 -4.405929 8.628220 -1.666604 0.260256 -1.320768 8.593506 -37.006909 1.059312 0.000000 0.000000 -0.000000 -3.624958 -19.701099 -4.665712 0.937596 -20.437283 4.090854 -0.260706 5.709814 -22.997019 0.000000 0.000000 -0.000000 -5.540672 2.885696 7.401019 0.000000 0.000000 -0.000000
1.072263 91.918472 -1.621367 0.000000 0.000000 -0.000000 -2.940759 -3.547155 -5.740266 3.238521 3.128389 9.590208 56.688135 -13.118719 -10.846108 0.000000 0.000000 -0.000000 -4.015232 -4.957283 0.881905 5.475826 4.745624 0.337149 59.884658 8.267943 15.825805 0.000000 0.000000 -0.000000 -8.324179 5.769033 7.300048 -55.184923 21.225224 -4.431565 0.000000 0.000000 -0.000000 -9.054578 -3.810399 10.846833 -3.649079 2.860239 2.649032 16.773731 -55.230517 20.447955 0.000000 0.000000 -0.000000 -2.041281 -23.592431 -3.506618 1.152641 -28.138094 5.587108 -0.663105 6.849307 -37.350565 0.000000 0.000000 -0.000000 -8.166206 4.054697 10.168319 0.000000 0.000000 -0.000000
1.317410 91.956116 -2.381690 0.000000 0.000000 -0.000000 -2.495659 -3.148834 -6.735835 2.893883 2.605729 10.726483 61.921607 -14.738176 -11.395087 0.000000 0.000000 -0.000000 -3.927477 -4.645271 0.205972 6.051620 5.415209 0.561131 61.681120 8.309093 17.868422 0.000000 0.000000 -0.000000 -10.870246 6.860358 12.687381 -64.357674 23.294635 -6.807504 0.000000 0.000000 -0.000000 -10.244174 -7.232237 12.415668 -4.878420 1.457352 5.916946 -10.428651 -63.987303 52.910761 0.000000 0.000000 -0.000000 0.409585 -28.195126 -1.573033 4.168304 -33.703389 8.984102 -1.619346 6.023386 -50.976190 0.000000 0.000000 -0.000000 -12.776105 5.960083 13.973530 0.000000 0.000000 -0.000000
1.575954 91.908272 -3.171681 0.000000 0.000000 -0.000000 -1.998014 -2.698769 -7.477285 2.368486 1.860804 11.364897 69.001427 -16.296720 -12.047649 0.000000 0.000000 -0.000000 -3.648083 -4.104416 -0.507305 6.018174 5.508037 0.946118 60.958625 7.671332 19.771165 0.000000 0.000000 -0.000000 -14.496192 8.291763 17.851423 -76.231157 26.451879 -9.864145 0.000000 0.000000 -0.000000 -8.815877 -15.702787 11.064206 -2.472173 -1.066423 8.879815 123.351502 -67.150405 82.827135 0.000000 0.000000 -0.000000 2.242161 -32.904076 -0.165041 8.864873 -35.891274 14.110251 -1.510686 5.105235 -60.384763 0.000000 0.000000 -0.000000 -18.212930 8.039915 17.398968 0.000000 0.000000 -0.000000
1.932361 91.775108 -3.900119 0.000000 0.000000 -0.000000 -1.484508 -2.227106 -7.947457 1.475194 0.727718 11.923895 85.628077 -18.377266 -12.913918 0.000000 0.000000 -0.000000 -3.193370 -3.335236 -1.359145 5.566943 5.209782 1.330777 61.116497 6.964892 22.754398 0.000000 0.000000 -0.000000 -19.934493 10.304117 22.767582 -87.742413 30.216746 -14.184272 0.000000 0.000000 -0.000000 -5.569051 -27.651896 7.485883 2.490149 -3.049996 13.112337 130.657746 -69.745839 123.683578 0.000000 0.000000 -0.000000 3.826682 -38.073380 1.028206 13.748700 -35.187590 18.887968 -0.721301 4.408556 -65.935258 0.000000 0.000000 -0.000000 -24.505119 10.477867 19.940575 0.000000 0.000000 -0.000000
2.445449 91.691223 -4.510688 0.000000 0.000000 -0.000000 -1.057912 -1.837381 -8.288667 0.672519 -0.283477 12.475564 121.416638 -21.229039 -14.500277 0.000000 0.000000 -0.000000 -2.802583 -2.656002 -2.221237 5.092324 4.860768 1.461619 64.171227 6.840893 27.650460 0.000000 0.000000 -0.000000 -28.648005 13.378517 27.459888 -96.552893 34.581164 -20.950809 0.000000 0.000000 -0.000000 0.426368 -42.159120 -0.380513 8.276725 -3.762446 22.904561 161.918618 -65.344922 170.186957 0.000000 0.000000 -0.000000 6.699718 -44.619084 3.396206 18.510119 -31.903856 21.651609 0.072376 3.791792 -68.172077 0.000000 0.000000 -0.000000 -33.173257 13.800084 22.505154 0.000000 0.000000 -0.000000
3.132030 91.607124 -4.924040 0.000000 0.000000 -0.000000 -0.555754 -1.384144 -8.687676 0.023118 -1.155980 13.199450 175.295423 -24.602734 -16.809358 0.000000 0.000000 -0.000000 -2.442214 -2.023748 -3.101885 4.852977 4.754102 1.761312 67.633903 7.228535 33.533679 0.000000 0.000000 -0.000000 -41.365346 17.828640 31.322513 -96.751790 37.739001 -31.151346 0.000000 0.000000 -0.000000 9.929566 -56.689467 -17.129431 13.967379 -7.725337 37.484010 -167.463647 -50.007913 -152.530107 0.000000 0.000000 -0.000000 12.736703 -51.396660 8.800362 23.087251 -27.811241 22.640441 0.967412 3.366927 -68.142575 0.000000 0.000000 -0.000000 -42.216343 17.055804 24.993957 0.000000 0.000000 -0.000000
